{
  "accessors": [
    {
      "bufferView": 2,
      "componentType": 5126,
      "count": 9256,
      "max": [
        115.84744262695313,
        96.14387512207031,
        126.1626968383789
      ],
      "min": [
        -241.51031494140625,
        -97.47792053222656,
        -24.15184783935547
      ],
      "type": "VEC3"
    },
    {
      "bufferView": 2,
      "byteOffset": 111072,
      "componentType": 5126,
      "count": 9256,
      "max": [
        1.0,
        1.0,
        1.0
      ],
      "min": [
        -1.0,
        -1.0,
        -1.0
      ],
      "type": "VEC3"
    },
    {
      "bufferView": 3,
      "componentType": 5126,
      "count": 9256,
      "max": [
        1.0,
        1.0,
        1.0,
        1.0
      ],
      "min": [
        -1.0,
        -1.0,
        -1.0,
        1.0
      ],
      "type": "VEC4"
    },
    {
      "bufferView": 1,
      "componentType": 5126,
      "count": 9256,
      "max": [
        0.9993090033531189,
        0.9991850256919861
      ],
      "min": [
        0.0006910000229254365,
        0.0006910000229254365
      ],
      "type": "VEC2"
    },
    {
      "bufferView": 0,
      "componentType": 5125,
      "count": 27162,
      "type": "SCALAR"
    },
    {
      "bufferView": 2,
      "byteOffset": 222144,
      "componentType": 5126,
      "count": 9948,
      "max": [
        46.8668212890625,
        99.72675323486328,
        94.39134216308594
      ],
      "min": [
        -127.99922943115234,
        -99.72679901123047,
        -63.72850799560547
      ],
      "type": "VEC3"
    },
    {
      "bufferView": 2,
      "byteOffset": 341520,
      "componentType": 5126,
      "count": 9948,
      "max": [
        1.0,
        1.0,
        1.0
      ],
      "min": [
        -1.0,
        -1.0,
        -1.0
      ],
      "type": "VEC3"
    },
    {
      "bufferView": 3,
      "byteOffset": 148096,
      "componentType": 5126,
      "count": 9948,
      "max": [
        1.0,
        1.0,
        1.0,
        1.0
      ],
      "min": [
        -1.0,
        -1.0,
        -1.0,
        1.0
      ],
      "type": "VEC4"
    },
    {
      "bufferView": 1,
      "byteOffset": 74048,
      "componentType": 5126,
      "count": 9948,
      "max": [
        0.9982370138168335,
        0.9981740117073059
      ],
      "min": [
        0.0006910000229254365,
        0.0006910000229254365
      ],
      "type": "VEC2"
    },
    {
      "bufferView": 0,
      "byteOffset": 108648,
      "componentType": 5125,
      "count": 28902,
      "type": "SCALAR"
    },
    {
      "bufferView": 2,
      "byteOffset": 460896,
      "componentType": 5126,
      "count": 9319,
      "max": [
        89.27322387695313,
        99.52735137939453,
        92.91834259033203
      ],
      "min": [
        -123.8703384399414,
        -99.52737426757813,
        -44.38585662841797
      ],
      "type": "VEC3"
    },
    {
      "bufferView": 2,
      "byteOffset": 572724,
      "componentType": 5126,
      "count": 9319,
      "max": [
        1.0,
        1.0,
        1.0
      ],
      "min": [
        -1.0,
        -1.0,
        -1.0
      ],
      "type": "VEC3"
    },
    {
      "bufferView": 3,
      "byteOffset": 307264,
      "componentType": 5126,
      "count": 9319,
      "max": [
        1.0,
        1.0,
        1.0,
        1.0
      ],
      "min": [
        -1.0,
        -1.0,
        -1.0,
        1.0
      ],
      "type": "VEC4"
    },
    {
      "bufferView": 1,
      "byteOffset": 153632,
      "componentType": 5126,
      "count": 9319,
      "max": [
        0.9929900169372559,
        0.9983710050582886
      ],
      "min": [
        0.0006910000229254365,
        0.0006910000229254365
      ],
      "type": "VEC2"
    },
    {
      "bufferView": 0,
      "byteOffset": 224256,
      "componentType": 5125,
      "count": 26157,
      "type": "SCALAR"
    },
    {
      "bufferView": 2,
      "byteOffset": 684552,
      "componentType": 5126,
      "count": 5653,
      "max": [
        33.588584899902344,
        99.0445785522461,
        65.35043334960938
      ],
      "min": [
        -164.83193969726563,
        -44.245155334472656,
        -35.508567810058594
      ],
      "type": "VEC3"
    },
    {
      "bufferView": 2,
      "byteOffset": 752388,
      "componentType": 5126,
      "count": 5653,
      "max": [
        1.0,
        1.0,
        1.0
      ],
      "min": [
        -1.0,
        -1.0,
        -1.0
      ],
      "type": "VEC3"
    },
    {
      "bufferView": 3,
      "byteOffset": 456368,
      "componentType": 5126,
      "count": 5653,
      "max": [
        1.0,
        0.9999946355819702,
        1.0,
        1.0
      ],
      "min": [
        -1.0,
        -1.0,
        -1.0,
        1.0
      ],
      "type": "VEC4"
    },
    {
      "bufferView": 1,
      "byteOffset": 228184,
      "componentType": 5126,
      "count": 5653,
      "max": [
        0.9917510151863098,
        0.9937049746513367
      ],
      "min": [
        0.003507999936118722,
        0.0006910000229254365
      ],
      "type": "VEC2"
    },
    {
      "bufferView": 0,
      "byteOffset": 328884,
      "componentType": 5125,
      "count": 18912,
      "type": "SCALAR"
    },
    {
      "bufferView": 2,
      "byteOffset": 820224,
      "componentType": 5126,
      "count": 9676,
      "max": [
        153.09169006347656,
        113.29651641845703,
        105.72926330566406
      ],
      "min": [
        -173.44894409179688,
        -113.29651641845703,
        -30.945308685302734
      ],
      "type": "VEC3"
    },
    {
      "bufferView": 2,
      "byteOffset": 936336,
      "componentType": 5126,
      "count": 9676,
      "max": [
        1.0,
        1.0,
        1.0
      ],
      "min": [
        -1.0,
        -1.0,
        -1.0
      ],
      "type": "VEC3"
    },
    {
      "bufferView": 3,
      "byteOffset": 546816,
      "componentType": 5126,
      "count": 9676,
      "max": [
        1.0,
        1.0,
        1.0,
        1.0
      ],
      "min": [
        -1.0,
        -1.0,
        -1.0,
        1.0
      ],
      "type": "VEC4"
    },
    {
      "bufferView": 1,
      "byteOffset": 273408,
      "componentType": 5126,
      "count": 9676,
      "max": [
        0.9996349811553955,
        0.9978640079498291
      ],
      "min": [
        0.0003650000144261867,
        0.0003650000144261867
      ],
      "type": "VEC2"
    },
    {
      "bufferView": 0,
      "byteOffset": 404532,
      "componentType": 5125,
      "count": 29964,
      "type": "SCALAR"
    },
    {
      "bufferView": 2,
      "byteOffset": 1052448,
      "componentType": 5126,
      "count": 998,
      "max": [
        -54.86671447753906,
        101.75479125976563,
        38.20981216430664
      ],
      "min": [
        -110.55191040039063,
        -101.75481414794922,
        4.63798713684082
      ],
      "type": "VEC3"
    },
    {
      "bufferView": 2,
      "byteOffset": 1064424,
      "componentType": 5126,
      "count": 998,
      "max": [
        1.0,
        1.0,
        1.0
      ],
      "min": [
        -1.0,
        -1.0,
        -1.0
      ],
      "type": "VEC3"
    },
    {
      "bufferView": 3,
      "byteOffset": 701632,
      "componentType": 5126,
      "count": 998,
      "max": [
        1.0,
        1.0,
        1.0,
        1.0
      ],
      "min": [
        -1.0,
        -1.0,
        -1.0,
        1.0
      ],
      "type": "VEC4"
    },
    {
      "bufferView": 1,
      "byteOffset": 350816,
      "componentType": 5126,
      "count": 998,
      "max": [
        0.9897950291633606,
        0.984254002571106
      ],
      "min": [
        0.0003650000144261867,
        0.05156100168824196
      ],
      "type": "VEC2"
    },
    {
      "bufferView": 0,
      "byteOffset": 524388,
      "componentType": 5125,
      "count": 3012,
      "type": "SCALAR"
    }
  ],
  "asset": {
    "extras": {
      "author": "TheRedMan (https://sketchfab.com/TheRedMan)",
      "license": "CC-BY-NC-SA-4.0 (http://creativecommons.org/licenses/by-nc-sa/4.0/)",
      "source": "https://sketchfab.com/3d-models/physter-underwater-smart-rov-d448dbea41394347ab2aece26bdb5531",
      "title": "Physter Underwater Smart ROV"
    },
    "generator": "Sketchfab-12.67.0",
    "version": "2.0"
  },
  "bufferViews": [
    {
      "buffer": 0,
      "byteLength": 536436,
      "name": "floatBufferViews",
      "target": 34963
    },
    {
      "buffer": 0,
      "byteLength": 358800,
      "byteOffset": 536436,
      "byteStride": 8,
      "name": "floatBufferViews",
      "target": 34962
    },
    {
      "buffer": 0,
      "byteLength": 1076400,
      "byteOffset": 895236,
      "byteStride": 12,
      "name": "floatBufferViews",
      "target": 34962
    },
    {
      "buffer": 0,
      "byteLength": 717600,
      "byteOffset": 1971636,
      "byteStride": 16,
      "name": "floatBufferViews",
      "target": 34962
    }
  ],
  "buffers": [
    {
      "byteLength": 2689236,
      "uri": "scene.bin"
    }
  ],
  "images": [
    {
      "uri": "textures/MainBody1_baseColor.png"
    },
    {
      "uri": "textures/MainBody1_metallicRoughness.png"
    },
    {
      "uri": "textures/MainBody1_emissive.jpeg"
    },
    {
      "uri": "textures/MainBody1_normal.png"
    },
    {
      "uri": "textures/MainBody2_baseColor.png"
    },
    {
      "uri": "textures/MainBody2_metallicRoughness.png"
    },
    {
      "uri": "textures/MainBody2_emissive.jpeg"
    },
    {
      "uri": "textures/MainBody2_normal.png"
    }
  ],
  "materials": [
    {
      "alphaMode": "BLEND",
      "doubleSided": true,
      "emissiveFactor": [
        1.0,
        1.0,
        1.0
      ],
      "emissiveTexture": {
        "index": 2
      },
      "name": "MainBody1",
      "normalTexture": {
        "index": 3
      },
      "pbrMetallicRoughness": {
        "baseColorTexture": {
          "index": 0
        },
        "metallicRoughnessTexture": {
          "index": 1
        }
      }
    },
    {
      "alphaMode": "BLEND",
      "doubleSided": true,
      "emissiveFactor": [
        1.0,
        1.0,
        1.0
      ],
      "emissiveTexture": {
        "index": 6
      },
      "name": "MainBody2",
      "normalTexture": {
        "index": 7
      },
      "pbrMetallicRoughness": {
        "baseColorTexture": {
          "index": 4
        },
        "metallicRoughnessTexture": {
          "index": 5
        }
      }
    }
  ],
  "meshes": [
    {
      "name": "Object_0",
      "primitives": [
        {
          "attributes": {
            "NORMAL": 1,
            "POSITION": 0,
            "TANGENT": 2,
            "TEXCOORD_0": 3
          },
          "indices": 4,
          "material": 0,
          "mode": 4
        }
      ]
    },
    {
      "name": "Object_1",
      "primitives": [
        {
          "attributes": {
            "NORMAL": 6,
            "POSITION": 5,
            "TANGENT": 7,
            "TEXCOORD_0": 8
          },
          "indices": 9,
          "material": 0,
          "mode": 4
        }
      ]
    },
    {
      "name": "Object_2",
      "primitives": [
        {
          "attributes": {
            "NORMAL": 11,
            "POSITION": 10,
            "TANGENT": 12,
            "TEXCOORD_0": 13
          },
          "indices": 14,
          "material": 0,
          "mode": 4
        }
      ]
    },
    {
      "name": "Object_3",
      "primitives": [
        {
          "attributes": {
            "NORMAL": 16,
            "POSITION": 15,
            "TANGENT": 17,
            "TEXCOORD_0": 18
          },
          "indices": 19,
          "material": 0,
          "mode": 4
        }
      ]
    },
    {
      "name": "Object_4",
      "primitives": [
        {
          "attributes": {
            "NORMAL": 21,
            "POSITION": 20,
            "TANGENT": 22,
            "TEXCOORD_0": 23
          },
          "indices": 24,
          "material": 1,
          "mode": 4
        }
      ]
    },
    {
      "name": "Object_5",
      "primitives": [
        {
          "attributes": {
            "NORMAL": 26,
            "POSITION": 25,
            "TANGENT": 27,
            "TEXCOORD_0": 28
          },
          "indices": 29,
          "material": 1,
          "mode": 4
        }
      ]
    }
  ],
  "nodes": [
    {
      "children": [
        1
      ],
      "matrix": [
        1.0,
        0.0,
        0.0,
        0.0,
        0.0,
        2.220446049250313e-16,
        -1.0,
        0.0,
        0.0,
        1.0,
        2.220446049250313e-16,
        0.0,
        0.0,
        0.0,
        0.0,
        1.0
      ],
      "name": "Sketchfab_model"
    },
    {
      "children": [
        2,
        3,
        4,
        5,
        6,
        7
      ],
      "name": "ROVTex.obj.cleaner.materialmerger.gles"
    },
    {
      "mesh": 0,
      "name": "Object_2"
    },
    {
      "mesh": 1,
      "name": "Object_3"
    },
    {
      "mesh": 2,
      "name": "Object_4"
    },
    {
      "mesh": 3,
      "name": "Object_5"
    },
    {
      "mesh": 4,
      "name": "Object_6"
    },
    {
      "mesh": 5,
      "name": "Object_7"
    }
  ],
  "samplers": [
    {
      "magFilter": 9729,
      "minFilter": 9987,
      "wrapS": 10497,
      "wrapT": 10497
    }
  ],
  "scene": 0,
  "scenes": [
    {
      "name": "Sketchfab_Scene",
      "nodes": [
        0
      ]
    }
  ],
  "textures": [
    {
      "sampler": 0,
      "source": 0
    },
    {
      "sampler": 0,
      "source": 1
    },
    {
      "sampler": 0,
      "source": 2
    },
    {
      "sampler": 0,
      "source": 3
    },
    {
      "sampler": 0,
      "source": 4
    },
    {
      "sampler": 0,
      "source": 5
    },
    {
      "sampler": 0,
      "source": 6
    },
    {
      "sampler": 0,
      "source": 7
    }
  ]
}
