{
  "accessors": [
    {
      "bufferView": 2,
      "componentType": 5126,
      "count": 850,
      "max": [
        2.0653650760650635,
        1.3371509313583374,
        1.9222955703735352
      ],
      "min": [
        -2.0653650760650635,
        -3.9463627338409424,
        -0.41558218002319336
      ],
      "type": "VEC3"
    },
    {
      "bufferView": 2,
      "byteOffset": 10200,
      "componentType": 5126,
      "count": 850,
      "max": [
        1.0,
        0.9249745607376099,
        1.0
      ],
      "min": [
        -0.9953258037567139,
        -0.9999847412109375,
        -1.0
      ],
      "type": "VEC3"
    },
    {
      "bufferView": 1,
      "componentType": 5126,
      "count": 850,
      "max": [
        0.7836371660232544,
        0.7375229001045227
      ],
      "min": [
        0.0,
        0.0
      ],
      "type": "VEC2"
    },
    {
      "bufferView": 0,
      "componentType": 5125,
      "count": 1452,
      "type": "SCALAR"
    },
    {
      "bufferView": 2,
      "byteOffset": 20400,
      "componentType": 5126,
      "count": 2224,
      "max": [
        5.39198112487793,
        3.101884126663208,
        0.38032573461532593
      ],
      "min": [
        -5.39198112487793,
        -2.146277904510498,
        -1.560634732246399
      ],
      "type": "VEC3"
    },
    {
      "bufferView": 2,
      "byteOffset": 47088,
      "componentType": 5126,
      "count": 2224,
      "max": [
        1.0,
        0.9999908208847046,
        0.9996137022972107
      ],
      "min": [
        -1.0,
        -0.9999932646751404,
        -0.9966062307357788
      ],
      "type": "VEC3"
    },
    {
      "bufferView": 1,
      "byteOffset": 6800,
      "componentType": 5126,
      "count": 2224,
      "max": [
        0.8306552171707153,
        0.8208349347114563
      ],
      "min": [
        0.11318178474903107,
        0.13045290112495422
      ],
      "type": "VEC2"
    },
    {
      "bufferView": 0,
      "byteOffset": 5808,
      "componentType": 5125,
      "count": 3348,
      "type": "SCALAR"
    },
    {
      "bufferView": 2,
      "byteOffset": 73776,
      "componentType": 5126,
      "count": 604,
      "max": [
        1.728384017944336,
        5.67592716217041,
        0.9872426390647888
      ],
      "min": [
        -1.728384017944336,
        -1.5387800931930542,
        -0.9872425198554993
      ],
      "type": "VEC3"
    },
    {
      "bufferView": 2,
      "byteOffset": 81024,
      "componentType": 5126,
      "count": 604,
      "max": [
        0.9975609183311462,
        1.0,
        0.9997624754905701
      ],
      "min": [
        -0.9975609183311462,
        -1.0,
        -0.9997707009315491
      ],
      "type": "VEC3"
    },
    {
      "bufferView": 1,
      "byteOffset": 24592,
      "componentType": 5126,
      "count": 604,
      "max": [
        0.7590128183364868,
        0.7232282757759094
      ],
      "min": [
        0.2494686245918274,
        0.2265404462814331
      ],
      "type": "VEC2"
    },
    {
      "bufferView": 0,
      "byteOffset": 19200,
      "componentType": 5125,
      "count": 996,
      "type": "SCALAR"
    },
    {
      "bufferView": 2,
      "byteOffset": 88272,
      "componentType": 5126,
      "count": 405,
      "max": [
        1.9428244829177856,
        2.201249361038208,
        1.9236767292022705
      ],
      "min": [
        -1.9468961954116821,
        -1.492628812789917,
        -1.8853679895401
      ],
      "type": "VEC3"
    },
    {
      "bufferView": 2,
      "byteOffset": 93132,
      "componentType": 5126,
      "count": 405,
      "max": [
        1.0,
        1.0,
        1.0
      ],
      "min": [
        -1.0,
        -1.0,
        -1.0
      ],
      "type": "VEC3"
    },
    {
      "bufferView": 1,
      "byteOffset": 29424,
      "componentType": 5126,
      "count": 405,
      "max": [
        0.6999489665031433,
        0.6639941930770874
      ],
      "min": [
        0.20083856582641602,
        0.16765758395195007
      ],
      "type": "VEC2"
    },
    {
      "bufferView": 0,
      "byteOffset": 23184,
      "componentType": 5125,
      "count": 603,
      "type": "SCALAR"
    },
    {
      "bufferView": 2,
      "byteOffset": 97992,
      "componentType": 5126,
      "count": 22,
      "max": [
        2.0653650760650635,
        0.5,
        0.2901497781276703
      ],
      "min": [
        -2.0653650760650635,
        -1.6131105422973633,
        -1.70984947681427
      ],
      "type": "VEC3"
    },
    {
      "bufferView": 2,
      "byteOffset": 98256,
      "componentType": 5126,
      "count": 22,
      "max": [
        0.9661087393760681,
        1.0,
        0.0
      ],
      "min": [
        -0.9661087393760681,
        -1.0,
        0.0
      ],
      "type": "VEC3"
    },
    {
      "bufferView": 1,
      "byteOffset": 32664,
      "componentType": 5126,
      "count": 22,
      "max": [
        0.0,
        0.0
      ],
      "min": [
        0.0,
        0.0
      ],
      "type": "VEC2"
    },
    {
      "bufferView": 0,
      "byteOffset": 25596,
      "componentType": 5125,
      "count": 42,
      "type": "SCALAR"
    },
    {
      "bufferView": 2,
      "byteOffset": 98520,
      "componentType": 5126,
      "count": 3666,
      "max": [
        7.004340648651123,
        1.2742774486541748,
        2.0553696155548096
      ],
      "min": [
        -7.004340648651123,
        -3.2878024578094482,
        -2.400122880935669
      ],
      "type": "VEC3"
    },
    {
      "bufferView": 2,
      "byteOffset": 142512,
      "componentType": 5126,
      "count": 3666,
      "max": [
        1.0,
        1.0,
        1.0
      ],
      "min": [
        -1.0,
        -1.0,
        -1.0
      ],
      "type": "VEC3"
    },
    {
      "bufferView": 1,
      "byteOffset": 32840,
      "componentType": 5126,
      "count": 3666,
      "max": [
        0.9388195872306824,
        0.8219693303108215
      ],
      "min": [
        0.0,
        0.0
      ],
      "type": "VEC2"
    },
    {
      "bufferView": 0,
      "byteOffset": 25764,
      "componentType": 5125,
      "count": 5685,
      "type": "SCALAR"
    },
    {
      "bufferView": 2,
      "byteOffset": 186504,
      "componentType": 5126,
      "count": 2979,
      "max": [
        8.257171630859375,
        2.206427812576294,
        2.0553698539733887
      ],
      "min": [
        -8.257171630859375,
        -3.7558162212371826,
        -2.4565396308898926
      ],
      "type": "VEC3"
    },
    {
      "bufferView": 2,
      "byteOffset": 222252,
      "componentType": 5126,
      "count": 2979,
      "max": [
        1.0,
        1.0,
        1.0
      ],
      "min": [
        -1.0,
        -1.0,
        -1.0
      ],
      "type": "VEC3"
    },
    {
      "bufferView": 1,
      "byteOffset": 62168,
      "componentType": 5126,
      "count": 2979,
      "max": [
        0.7996304035186768,
        0.9235324263572693
      ],
      "min": [
        -0.01153513416647911,
        0.0
      ],
      "type": "VEC2"
    },
    {
      "bufferView": 0,
      "byteOffset": 48504,
      "componentType": 5125,
      "count": 4710,
      "type": "SCALAR"
    },
    {
      "bufferView": 2,
      "byteOffset": 258000,
      "componentType": 5126,
      "count": 3266,
      "max": [
        5.937966346740723,
        2.3404953479766846,
        1.9443089962005615
      ],
      "min": [
        -5.937966346740723,
        -3.2878024578094482,
        -2.400122880935669
      ],
      "type": "VEC3"
    },
    {
      "bufferView": 2,
      "byteOffset": 297192,
      "componentType": 5126,
      "count": 3266,
      "max": [
        1.0,
        1.0,
        1.0
      ],
      "min": [
        -1.0,
        -1.0,
        -1.0
      ],
      "type": "VEC3"
    },
    {
      "bufferView": 1,
      "byteOffset": 86000,
      "componentType": 5126,
      "count": 3266,
      "max": [
        0.7899048328399658,
        0.8492817878723145
      ],
      "min": [
        0.0,
        0.0
      ],
      "type": "VEC2"
    },
    {
      "bufferView": 0,
      "byteOffset": 67344,
      "componentType": 5125,
      "count": 5805,
      "type": "SCALAR"
    },
    {
      "bufferView": 2,
      "byteOffset": 336384,
      "componentType": 5126,
      "count": 4806,
      "max": [
        5.39198112487793,
        2.1641530990600586,
        2.071410894393921
      ],
      "min": [
        -5.39198112487793,
        -3.2878024578094482,
        -3.1690635681152344
      ],
      "type": "VEC3"
    },
    {
      "bufferView": 2,
      "byteOffset": 394056,
      "componentType": 5126,
      "count": 4806,
      "max": [
        1.0,
        1.0,
        1.0
      ],
      "min": [
        -1.0,
        -1.0,
        -1.0
      ],
      "type": "VEC3"
    },
    {
      "bufferView": 1,
      "byteOffset": 112128,
      "componentType": 5126,
      "count": 4806,
      "max": [
        0.8306552171707153,
        0.8219693303108215
      ],
      "min": [
        0.0,
        0.0
      ],
      "type": "VEC2"
    },
    {
      "bufferView": 0,
      "byteOffset": 90564,
      "componentType": 5125,
      "count": 7443,
      "type": "SCALAR"
    },
    {
      "bufferView": 2,
      "byteOffset": 451728,
      "componentType": 5126,
      "count": 2005,
      "max": [
        8.519587516784668,
        1.5426520109176636,
        8.654407501220703
      ],
      "min": [
        -8.519587516784668,
        -6.892992973327637,
        -8.14211654663086
      ],
      "type": "VEC3"
    },
    {
      "bufferView": 2,
      "byteOffset": 475788,
      "componentType": 5126,
      "count": 2005,
      "max": [
        0.9995896220207214,
        1.0,
        1.0
      ],
      "min": [
        -0.9995896220207214,
        -1.0,
        -0.9761483669281006
      ],
      "type": "VEC3"
    },
    {
      "bufferView": 1,
      "byteOffset": 150576,
      "componentType": 5126,
      "count": 2005,
      "max": [
        0.7517814040184021,
        0.8492817878723145
      ],
      "min": [
        0.15160143375396729,
        0.19736233353614807
      ],
      "type": "VEC2"
    },
    {
      "bufferView": 0,
      "byteOffset": 120336,
      "componentType": 5125,
      "count": 3858,
      "type": "SCALAR"
    }
  ],
  "asset": {
    "extras": {
      "author": "Ole-Johannes (https://sketchfab.com/varntex)",
      "license": "CC-BY-4.0 (http://creativecommons.org/licenses/by/4.0/)",
      "source": "https://sketchfab.com/3d-models/modular-lowpoly-spaceships-b9c5c691693843f8b7fcda5eba0def06",
      "title": "Modular Lowpoly Spaceships"
    },
    "generator": "Sketchfab-12.66.0",
    "version": "2.0"
  },
  "bufferViews": [
    {
      "buffer": 0,
      "byteLength": 135768,
      "name": "floatBufferViews",
      "target": 34963
    },
    {
      "buffer": 0,
      "byteLength": 166616,
      "byteOffset": 135768,
      "byteStride": 8,
      "name": "floatBufferViews",
      "target": 34962
    },
    {
      "buffer": 0,
      "byteLength": 499848,
      "byteOffset": 302384,
      "byteStride": 12,
      "name": "floatBufferViews",
      "target": 34962
    }
  ],
  "buffers": [
    {
      "byteLength": 802232,
      "uri": "scene.bin"
    }
  ],
  "materials": [
    {
      "doubleSided": true,
      "name": "Default",
      "pbrMetallicRoughness": {
        "baseColorFactor": [
          0.8,
          0.8,
          0.8,
          1.0
        ],
        "metallicFactor": 0.0,
        "roughnessFactor": 0.8211145618000169
      }
    },
    {
      "doubleSided": true,
      "name": "Magma",
      "pbrMetallicRoughness": {
        "baseColorFactor": [
          0.8,
          0.8,
          0.8,
          1.0
        ],
        "metallicFactor": 0.0,
        "roughnessFactor": 0.8211145618000169
      }
    },
    {
      "doubleSided": true,
      "name": "Silver",
      "pbrMetallicRoughness": {
        "baseColorFactor": [
          0.8,
          0.8,
          0.8,
          1.0
        ],
        "metallicFactor": 0.0,
        "roughnessFactor": 0.8211145618000169
      }
    },
    {
      "doubleSided": true,
      "name": "DarkWing",
      "pbrMetallicRoughness": {
        "baseColorFactor": [
          0.8,
          0.8,
          0.8,
          1.0
        ],
        "metallicFactor": 0.0
      }
    }
  ],
  "meshes": [
    {
      "name": "Hotrod_Default_0",
      "primitives": [
        {
          "attributes": {
            "NORMAL": 1,
            "POSITION": 0,
            "TEXCOORD_0": 2
          },
          "indices": 3,
          "material": 0,
          "mode": 4
        }
      ]
    },
    {
      "name": "Gauntlet_Default_0",
      "primitives": [
        {
          "attributes": {
            "NORMAL": 5,
            "POSITION": 4,
            "TEXCOORD_0": 6
          },
          "indices": 7,
          "material": 0,
          "mode": 4
        }
      ]
    },
    {
      "name": "Stinger_Default_0",
      "primitives": [
        {
          "attributes": {
            "NORMAL": 9,
            "POSITION": 8,
            "TEXCOORD_0": 10
          },
          "indices": 11,
          "material": 0,
          "mode": 4
        }
      ]
    },
    {
      "name": "Mandible_Default_0",
      "primitives": [
        {
          "attributes": {
            "NORMAL": 13,
            "POSITION": 12,
            "TEXCOORD_0": 14
          },
          "indices": 15,
          "material": 0,
          "mode": 4
        }
      ]
    },
    {
      "name": "Body Connectors_Default_0",
      "primitives": [
        {
          "attributes": {
            "NORMAL": 17,
            "POSITION": 16,
            "TEXCOORD_0": 18
          },
          "indices": 19,
          "material": 0,
          "mode": 4
        }
      ]
    },
    {
      "name": "Ex.1_Magma_0",
      "primitives": [
        {
          "attributes": {
            "NORMAL": 21,
            "POSITION": 20,
            "TEXCOORD_0": 22
          },
          "indices": 23,
          "material": 1,
          "mode": 4
        }
      ]
    },
    {
      "name": "Ex.2_Silver_0",
      "primitives": [
        {
          "attributes": {
            "NORMAL": 25,
            "POSITION": 24,
            "TEXCOORD_0": 26
          },
          "indices": 27,
          "material": 2,
          "mode": 4
        }
      ]
    },
    {
      "name": "Ex.3_Magma_0",
      "primitives": [
        {
          "attributes": {
            "NORMAL": 29,
            "POSITION": 28,
            "TEXCOORD_0": 30
          },
          "indices": 31,
          "material": 1,
          "mode": 4
        }
      ]
    },
    {
      "name": "Ex.4_DarkWing_0",
      "primitives": [
        {
          "attributes": {
            "NORMAL": 33,
            "POSITION": 32,
            "TEXCOORD_0": 34
          },
          "indices": 35,
          "material": 3,
          "mode": 4
        }
      ]
    },
    {
      "name": "Ex.5_DarkWing_0",
      "primitives": [
        {
          "attributes": {
            "NORMAL": 37,
            "POSITION": 36,
            "TEXCOORD_0": 38
          },
          "indices": 39,
          "material": 3,
          "mode": 4
        }
      ]
    }
  ],
  "nodes": [
    {
      "children": [
        1
      ],
      "matrix": [
        1.0,
        0.0,
        0.0,
        0.0,
        0.0,
        2.220446049250313e-16,
        -1.0,
        0.0,
        0.0,
        1.0,
        2.220446049250313e-16,
        0.0,
        0.0,
        0.0,
        0.0,
        1.0
      ],
      "name": "Sketchfab_model"
    },
    {
      "children": [
        2
      ],
      "matrix": [
        1.0,
        0.0,
        0.0,
        0.0,
        0.0,
        0.0,
        1.0,
        0.0,
        0.0,
        -1.0,
        0.0,
        0.0,
        0.0,
        0.0,
        0.0,
        1.0
      ],
      "name": "82ee19b713c44c98a89c4d0e78f60bec.fbx"
    },
    {
      "children": [
        3,
        5,
        7,
        9,
        11,
        13,
        15,
        17,
        19,
        21
      ],
      "name": "RootNode"
    },
    {
      "children": [
        4
      ],
      "matrix": [
        100.0,
        0.0,
        0.0,
        0.0,
        0.0,
        -1.629206793918314e-05,
        -99.99999999999868,
        0.0,
        0.0,
        99.99999999999868,
        -1.629206793918314e-05,
        0.0,
        0.0,
        -98.10456848144531,
        0.0,
        1.0
      ],
      "name": "Hotrod"
    },
    {
      "mesh": 0,
      "name": "Hotrod_Default_0"
    },
    {
      "children": [
        6
      ],
      "matrix": [
        100.0,
        0.0,
        0.0,
        0.0,
        0.0,
        -1.629206793918314e-05,
        -99.99999999999868,
        0.0,
        0.0,
        99.99999999999868,
        -1.629206793918314e-05,
        0.0,
        0.0,
        0.0,
        0.0,
        1.0
      ],
      "name": "Gauntlet"
    },
    {
      "mesh": 1,
      "name": "Gauntlet_Default_0"
    },
    {
      "children": [
        8
      ],
      "matrix": [
        100.0,
        0.0,
        0.0,
        0.0,
        0.0,
        -1.629206793918314e-05,
        -99.99999999999868,
        0.0,
        0.0,
        99.99999999999868,
        -1.629206793918314e-05,
        0.0,
        0.0,
        -30.832130432128906,
        -276.19952392578125,
        1.0
      ],
      "name": "Stinger"
    },
    {
      "mesh": 2,
      "name": "Stinger_Default_0"
    },
    {
      "children": [
        10
      ],
      "matrix": [
        46.1448974609375,
        0.0,
        0.0,
        0.0,
        0.0,
        -7.517958044802334e-06,
        -46.14489746093689,
        0.0,
        0.0,
        46.14489746093689,
        -7.517958044802334e-06,
        0.0,
        0.09394390881061554,
        -39.600643157958984,
        496.2126770019531,
        1.0
      ],
      "name": "Mandible"
    },
    {
      "mesh": 3,
      "name": "Mandible_Default_0"
    },
    {
      "children": [
        12
      ],
      "matrix": [
        100.0,
        0.0,
        0.0,
        0.0,
        0.0,
        -3.9857412101434894e-05,
        -244.6430511474577,
        0.0,
        0.0,
        56.85345077514573,
        -9.262602826056909e-06,
        0.0,
        0.0,
        0.0,
        0.0,
        1.0
      ],
      "name": "Body Connectors"
    },
    {
      "mesh": 4,
      "name": "Body Connectors_Default_0"
    },
    {
      "children": [
        14
      ],
      "matrix": [
        100.0,
        0.0,
        0.0,
        0.0,
        0.0,
        -3.9857412101434894e-05,
        -244.6430511474577,
        0.0,
        0.0,
        56.85345077514573,
        -9.262602826056909e-06,
        0.0,
        1820.87158203125,
        -1913.4765625,
        0.0,
        1.0
      ],
      "name": "Ex.1"
    },
    {
      "mesh": 5,
      "name": "Ex.1_Magma_0"
    },
    {
      "children": [
        16
      ],
      "matrix": [
        100.0,
        0.0,
        0.0,
        0.0,
        0.0,
        -3.9857412101434894e-05,
        -244.6430511474577,
        0.0,
        0.0,
        56.85345077514573,
        -9.262602826056909e-06,
        0.0,
        68.63021850585938,
        -1912.9710693359375,
        0.0,
        1.0
      ],
      "name": "Ex.2"
    },
    {
      "mesh": 6,
      "name": "Ex.2_Silver_0"
    },
    {
      "children": [
        18
      ],
      "matrix": [
        100.0,
        0.0,
        0.0,
        0.0,
        0.0,
        -3.9857412101434894e-05,
        -244.6430511474577,
        0.0,
        0.0,
        56.85345077514573,
        -9.262602826056909e-06,
        0.0,
        1682.511962890625,
        -100.71599578857422,
        0.0,
        1.0
      ],
      "name": "Ex.3"
    },
    {
      "mesh": 7,
      "name": "Ex.3_Magma_0"
    },
    {
      "children": [
        20
      ],
      "matrix": [
        100.0,
        0.0,
        0.0,
        0.0,
        -0.0,
        -3.9857412101434894e-05,
        -244.6430511474577,
        0.0,
        0.0,
        56.85345077514573,
        -9.262602826056909e-06,
        0.0,
        -1571.126220703125,
        -1939.2523193359375,
        0.0,
        1.0
      ],
      "name": "Ex.4"
    },
    {
      "mesh": 8,
      "name": "Ex.4_DarkWing_0"
    },
    {
      "children": [
        22
      ],
      "matrix": [
        100.0,
        0.0,
        0.0,
        0.0,
        -0.0,
        -1.629206793918314e-05,
        -99.99999999999868,
        0.0,
        0.0,
        45.01801681518495,
        -7.33436588440292e-06,
        0.0,
        -1517.81201171875,
        -165.43179321289063,
        -254.72076416015625,
        1.0
      ],
      "name": "Ex.5"
    },
    {
      "mesh": 9,
      "name": "Ex.5_DarkWing_0"
    }
  ],
  "scene": 0,
  "scenes": [
    {
      "name": "Sketchfab_Scene",
      "nodes": [
        0
      ]
    }
  ]
}
